<!-- Generated by IcoMoon.io -->
<svg version="1.1" xmlns="http://www.w3.org/2000/svg" width="9" height="14" viewBox="0 0 9 14">
<path d="M8.398 5.75c0 0.062-0.031 0.133-0.078 0.18l-3.641 3.641c-0.047 0.047-0.117 0.078-0.18 0.078s-0.133-0.031-0.18-0.078l-3.641-3.641c-0.047-0.047-0.078-0.117-0.078-0.18s0.031-0.133 0.078-0.18l0.391-0.391c0.047-0.047 0.109-0.078 0.18-0.078 0.062 0 0.133 0.031 0.18 0.078l3.070 3.070 3.070-3.070c0.047-0.047 0.117-0.078 0.18-0.078s0.133 0.031 0.18 0.078l0.391 0.391c0.047 0.047 0.078 0.117 0.078 0.18z"></path>
</svg>
