<?xml version="1.0" encoding="UTF-8"?>
<svg width="32px" height="32px" viewBox="0 0 32 32" version="1.1" xmlns="http://www.w3.org/2000/svg" xmlns:xlink="http://www.w3.org/1999/xlink">
    <g id="Icon/Blog" stroke="none" stroke-width="1" fill="none" fill-rule="evenodd">
        <rect id="Background" fill="#FF551E" fill-rule="nonzero" x="0" y="0" width="32" height="32" rx="5"></rect>
        <path d="M8,8 L8,21.6 C8,22.9156248 9.0843752,24 10.4,24 L21.6,24 C22.9156248,24 24,22.9156248 24,21.6 L24,11.2 L20.8,11.2 L20.8,8 L8,8 Z M9.6,9.6 L19.2,9.6 L19.2,21.6 C19.2,21.9093752 19.4156248,22.1281248 19.525,22.4 L10.4,22.4 C9.9468752,22.4 9.6,22.0531248 9.6,21.6 L9.6,9.6 Z M11.2,12 L11.2,14.4 L17.6,14.4 L17.6,12 L11.2,12 Z M20.8,12.8 L22.4,12.8 L22.4,21.6 C22.4,22.0531248 22.0531248,22.4 21.6,22.4 C21.1468752,22.4 20.8,22.0531248 20.8,21.6 L20.8,12.8 Z M11.2,16 L11.2,17.6 L17.6,17.6 L17.6,16 L11.2,16 Z M11.2,18.4 L11.2,20 L17.6,20 L17.6,18.4 L11.2,18.4 Z" id="Shape" fill="#FFFFFF" fill-rule="nonzero"></path>
    </g>
</svg>
