<?xml version="1.0" encoding="UTF-8"?>
<svg width="32px" height="32px" viewBox="0 0 32 32" version="1.1" xmlns="http://www.w3.org/2000/svg" xmlns:xlink="http://www.w3.org/1999/xlink">
    <g id="Icon/Career-Positions" stroke="none" stroke-width="1" fill="none" fill-rule="evenodd">
        <rect id="Background" fill="#FF551E" fill-rule="nonzero" x="0" y="0" width="32" height="32" rx="5"></rect>
        <path d="M13.5308642,8 C12.7407407,8 11.9506173,8.6375 11.9506173,9.4312504 L11.9506173,10.8625 L9.42283931,10.8625 C8.63271585,10.8625 8.00617323,11.5 8.00617323,12.2937504 L8,20.1687504 C8,20.9625 8.63271585,21.6 9.42283931,21.6 L15.9135802,21.6 L17.1728395,20.3218752 C16.8672838,19.75 16.691358,19.0968752 16.691358,18.4 C16.691358,16.1937504 18.4598763,14.4 20.6419753,14.4 C21.2037041,14.4 21.7376545,14.5187504 22.2222222,14.7343752 L22.2222222,12.2937504 C22.2222222,11.5 21.5895064,10.8625 20.7993829,10.8625 L18.2716049,10.8625 L18.2716049,9.4312504 C18.2716049,8.6375 17.4814815,8 16.691358,8 L13.5308642,8 Z M13.5308642,9.6 L16.691358,9.6 L16.691358,10.8625 L13.5308642,10.8625 L13.5308642,9.6 Z M20.7685183,15.2 C18.9845681,15.2 17.5401237,16.6625 17.5401237,18.4718752 C17.5401237,19.2812504 17.8333337,20.025 18.3209877,20.6 L18.182099,20.7343752 L17.7901235,20.7343752 L15.308642,23.25 L16.0493827,24 L18.5339504,21.4875 L18.5339504,21.0906248 L18.6666667,20.95 C19.2345679,21.4437504 19.9691362,21.7406248 20.7685183,21.7406248 C22.5555556,21.7406248 24,20.2781248 24,18.4718752 C24,16.6625 22.5555556,15.2 20.7685183,15.2 Z M20.7685183,16.2062504 C22.0061732,16.2062504 23.0061732,17.2187504 23.0061732,18.4718752 C23.0061732,19.7218752 22.0061732,20.7343752 20.7685183,20.7343752 C19.5339504,20.7343752 18.5339504,19.7218752 18.5339504,18.4718752 C18.5339504,17.2187504 19.5339504,16.2062504 20.7685183,16.2062504 Z" id="Shape" fill="#FFFFFF" fill-rule="nonzero"></path>
    </g>
</svg>
