<?xml version="1.0" encoding="UTF-8"?>
<svg width="32px" height="32px" viewBox="0 0 32 32" version="1.1" xmlns="http://www.w3.org/2000/svg" xmlns:xlink="http://www.w3.org/1999/xlink">
    <g id="Icon/Contact-Form" stroke="none" stroke-width="1" fill="none" fill-rule="evenodd">
        <rect id="Background" fill="#22B7D6" fill-rule="nonzero" x="0" y="0" width="32" height="32" rx="5"></rect>
        <path d="M11.0909091,7 C9.74218709,7 8.63636364,8.06998658 8.63636364,9.375 L8.63636364,10.1666667 L7,10.1666667 L7,11.75 L10.2727273,11.75 L10.2727273,9.375 C10.2727273,8.9296875 10.6306818,8.58333333 11.0909091,8.58333333 L22.5454545,8.58333333 C23.0056818,8.58333333 23.3636364,8.9296875 23.3636364,9.375 L23.3636364,23.625 C23.3636364,24.0703125 23.0056818,24.4166667 22.5454545,24.4166667 L11.0909091,24.4166667 C10.6306818,24.4166667 10.2727273,24.0703125 10.2727273,23.625 L10.2727273,22.8333333 L8.63636364,22.8333333 L8.63636364,23.625 C8.63636364,24.9300134 9.74218709,26 11.0909091,26 L22.5454545,26 C23.8941765,26 25,24.9300134 25,23.625 L25,9.375 C25,8.06998658 23.8941765,7 22.5454545,7 L11.0909091,7 Z M8.63636364,13.3333333 L8.63636364,14.9166667 L7,14.9166667 L7,16.5 L10.2727273,16.5 L10.2727273,13.3333333 L8.63636364,13.3333333 Z M8.63636364,18.0833333 L8.63636364,19.6666667 L7,19.6666667 L7,21.25 L10.2727273,21.25 L10.2727273,18.0833333 L8.63636364,18.0833333 Z" id="Shape" fill="#FFFFFF" fill-rule="nonzero"></path>
        <polygon id="7" fill="#FFFFFF" points="14.8203125 21.8642578 19.2021484 13.3261719 19.2021484 13.2919922 14 13.2919922 14 12 20.7128906 12 20.7128906 13.3261719 16.4267578 21.8642578"></polygon>
    </g>
</svg>
