<?xml version="1.0" encoding="UTF-8"?>
<svg width="32px" height="32px" viewBox="0 0 32 32" version="1.1" xmlns="http://www.w3.org/2000/svg" xmlns:xlink="http://www.w3.org/1999/xlink">
    <g id="Icon/Progress" stroke="none" stroke-width="1" fill="none" fill-rule="evenodd">
        <rect id="Background" fill="#6BC158" fill-rule="nonzero" x="0" y="0" width="32" height="32" rx="5"></rect>
        <g id="Progress-Icons---Free-Download,-PNG-and-SVG-15" transform="translate(6.000000, 6.000000)" fill="#FFFFFF" fill-rule="nonzero">
            <path d="M10,0 C9.61531435,0 9.24262826,0.0255103913 8.88077435,0.0662364348 L9.07523783,1.79432743 C9.38555783,1.75940135 9.69251174,1.73913043 10,1.73913043 C14.5726626,1.73913043 18.2608696,5.42733739 18.2608696,10 C18.2608696,14.5726626 14.5726626,18.2608696 10,18.2608696 C9.69419696,18.2608696 9.38904913,18.2406913 9.08033304,18.2065217 L8.88841696,19.9354617 C9.24752696,19.9752074 9.61797696,20 10,20 C15.5125548,20 20,15.5125548 20,10 C20,4.48744522 15.5125548,0 10,0 Z M6.69836957,0.568104609 C5.98614826,0.817572435 5.31116609,1.14458743 4.68240478,1.54042122 L5.60886565,3.01205843 C6.12793043,2.68528348 6.68461913,2.41576322 7.27326783,2.20957878 L6.69836957,0.568104609 Z M2.92798913,2.92968748 C2.394437,3.4632397 1.93429074,4.05675304 1.53872283,4.68495261 L3.01036004,5.61141304 C3.34522691,5.07961261 3.72681304,4.59010261 4.1576087,4.15930696 L2.92798913,2.92968748 Z M13.6243209,5.16983696 L8.96144696,12.1645722 L5.79483696,9.35037348 L4.63994565,10.6496265 L9.29942261,14.7919496 L15.0713313,6.13451087 L13.6243209,5.16983696 Z M0.567255435,6.70176609 C0.324863391,7.39390957 0.150144913,8.12363783 0.0653872174,8.88502043 L1.79347826,9.07693609 C1.86263365,8.45571 2.00590426,7.85582565 2.20872961,7.27666435 L0.567255435,6.70176609 Z M1.79517661,10.9281591 L0.0670856087,11.121773 C0.152326522,11.8831948 0.327568565,12.6124852 0.569803,13.3041778 L2.21127717,12.72928 C2.00829422,12.1496683 1.8647183,11.5493461 1.79517661,10.9281591 Z M3.01375678,14.392833 L1.54296874,15.3209917 C1.93919696,15.9494917 2.39946761,16.5414226 2.93308426,17.0745583 L4.16185478,15.8440896 C3.73025391,15.4128778 3.34883296,14.924333 3.01375678,14.392833 Z M5.61396043,16.9904891 L4.68834913,18.4629757 C5.31714696,18.8583561 5.99240565,19.1845809 6.70516304,19.4335939 L7.27921217,17.7921196 C6.69022957,17.5863496 6.1329887,17.3168478 5.61396043,16.9904891 Z" id="Shape"></path>
        </g>
    </g>
</svg>
