<?xml version="1.0" encoding="UTF-8"?>
<svg width="32px" height="32px" viewBox="0 0 32 32" version="1.1" xmlns="http://www.w3.org/2000/svg" xmlns:xlink="http://www.w3.org/1999/xlink">
    <g id="Icon/Count-to" stroke="none" stroke-width="1" fill="none" fill-rule="evenodd">
        <rect id="Background" fill="#6BC158" fill-rule="nonzero" x="0" y="0" width="32" height="32" rx="5"></rect>
        <path d="M16,6 C10.4871113,6 6,10.4871113 6,16 C6,21.5128883 10.4871113,26 16,26 C21.5128883,26 26,21.5128883 26,16 C26,12.5502358 24.2482625,9.50012758 21.5826825,7.702474 L22.5380858,6.476888 L18.5,6.33040367 L19.665365,10.1666667 L20.5507817,9.02897133 C22.6061858,10.3726478 24.0327583,12.591005 24.28776,15.1682942 C23.8460388,15.1924872 23.5002019,15.5576168 23.5,16 C23.5003377,16.4441748 23.8489982,16.8100178 24.2926433,16.8317058 C23.9035692,20.7770358 20.7770358,23.9035692 16.8317058,24.2926433 C16.8100178,23.8489982 16.4441748,23.5003377 16,23.5 C15.5558252,23.5003377 15.1899822,23.8489982 15.1682942,24.2926433 C11.2229642,23.9035692 8.09643083,20.7770358 7.70735675,16.8317058 C8.15100183,16.8100177 8.49966233,16.4441748 8.5,16 C8.49884126,15.557053 8.1513614,15.1924136 7.70898433,15.1699217 C8.10165575,11.2473626 11.2489952,8.23212975 15.181315,7.83105467 C15.2621958,8.25485489 15.6531513,8.54686203 16.0824801,8.50414065 C16.5118089,8.46141927 16.8375541,8.09809514 16.8333333,7.66666667 L16.8333333,6.83333333 C16.8332873,6.3731151 16.4602182,6.00004601 16,6 Z M15.349609,12.828125 L13.738281,13.927734 L13.738281,15.316406 L15.267578,14.283203 L15.349609,14.283203 L15.349609,19.169922 L16.962891,19.169922 L16.962891,12.828125 L15.349609,12.828125 Z" id="Shape" fill="#FFFFFF" fill-rule="nonzero"></path>
    </g>
</svg>
