<?xml version="1.0" encoding="UTF-8"?>
<svg width="32px" height="32px" viewBox="0 0 32 32" version="1.1" xmlns="http://www.w3.org/2000/svg" xmlns:xlink="http://www.w3.org/1999/xlink">
    <g id="Icon/Flip-Box" stroke="none" stroke-width="1" fill="none" fill-rule="evenodd">
        <rect id="Background" fill="#226FFF" fill-rule="nonzero" x="0" y="0" width="32" height="32" rx="5"></rect>
        <polygon id="Shape" points="4 4 28 4 28 28 4 28"></polygon>
        <path d="M19,25 L21,25 L21,23 L19,23 L19,25 Z M23,13 L25,13 L25,11 L23,11 L23,13 Z M7,9 L7,23 C7,24.1 7.9,25 9,25 L13,25 L13,23 L9,23 L9,9 L13,9 L13,7 L9,7 C7.9,7 7,7.9 7,9 Z M23,7 L23,9 L25,9 C25,7.9 24.1,7 23,7 Z M15,27 L17,27 L17,5 L15,5 L15,27 Z M23,21 L25,21 L25,19 L23,19 L23,21 Z M19,9 L21,9 L21,7 L19,7 L19,9 Z M23,17 L25,17 L25,15 L23,15 L23,17 Z M23,25 C24.1,25 25,24.1 25,23 L23,23 L23,25 Z" id="Shape" fill="#FFFFFF" fill-rule="nonzero"></path>
    </g>
</svg>
