<?xml version="1.0" encoding="UTF-8"?>
<svg width="32px" height="32px" viewBox="0 0 32 32" version="1.1" xmlns="http://www.w3.org/2000/svg" xmlns:xlink="http://www.w3.org/1999/xlink">
    <g id="Icon/Google-Map" stroke="none" stroke-width="1" fill="none" fill-rule="evenodd">
        <g id="element-icon-row" fill="#FBA41C" fill-rule="nonzero">
            <rect id="Rectangle" x="0" y="0" width="32" height="32" rx="5"></rect>
        </g>
        <g id="map-marker" transform="translate(7.000000, 7.000000)" fill="#FFFFFF" fill-rule="nonzero">
            <path d="M15.84,10.97136 L15.84,16.35768 L11.52,15.27768 L11.52,12.99672 L10.08,10.97136 L10.08,15.29712 L6.48,16.326 L6.48,4.88232 L6.48792,4.88016 C6.50088,4.34808 6.57936,3.83256 6.714,3.33936 L6.14664,3.4812 C5.90184,3.5424 5.6448,3.53808 5.40144,3.46896 L0.96408,2.20032 C0.48096,2.0628 0,2.42496 0,2.92752 L0,15.2964 C0,15.93936 0.42624,16.50456 1.044,16.68096 L5.50368,17.95536 C5.67144,18.00288 5.84856,18.00288 6.01632,17.95536 L10.44216,16.69104 C10.6848,16.62192 10.94184,16.6176 11.18736,16.6788 L16.34112,17.9676 C16.81776,18.08712 17.28,17.72568 17.28,17.23392 L17.28,9.82296 L15.84,10.97136 Z M5.04,16.32528 L1.44,15.29712 L1.44,3.83472 L5.04,4.86288 L5.04,16.32528 Z" id="Shape"></path>
            <path d="M12.96,0 C10.17648,0 7.92,2.25648 7.92,5.04 C7.92,8.35488 11.19672,9.8964 11.60712,10.26576 C12.02616,10.64304 12.37248,11.39976 12.51288,11.87928 C12.58056,12.11184 12.77136,12.22992 12.96,12.23496 C13.14936,12.22992 13.33944,12.11184 13.40712,11.87928 C13.5468,11.40048 13.89312,10.64304 14.31288,10.26576 C14.72328,9.8964 18,8.35488 18,5.04 C18,2.25648 15.74352,0 12.96,0 Z M12.96,6.48 C12.1644,6.48 11.52,5.8356 11.52,5.04 C11.52,4.2444 12.1644,3.6 12.96,3.6 C13.7556,3.6 14.4,4.2444 14.4,5.04 C14.4,5.8356 13.7556,6.48 12.96,6.48 Z" id="Shape"></path>
        </g>
    </g>
</svg>
