<?xml version="1.0" encoding="UTF-8"?>
<svg width="32px" height="32px" viewBox="0 0 32 32" version="1.1" xmlns="http://www.w3.org/2000/svg" xmlns:xlink="http://www.w3.org/1999/xlink">
    <g id="Icon/Icon-Box" stroke="none" stroke-width="1" fill="none" fill-rule="evenodd">
        <g id="element-icon-row" fill="#226FFF" fill-rule="nonzero">
            <rect id="Rectangle" x="0" y="0" width="32" height="32" rx="5"></rect>
        </g>
        <g id="Box-Icons---Free-Download,-PNG-and-SVG-14" transform="translate(8.000000, 9.000000)" fill="#FFFFFF" fill-rule="nonzero">
            <path d="M0,0 L0,4.09090909 L0.666666667,4.09090909 L0.666666667,15 L15.3333333,15 L15.3333333,4.09090909 L16,4.09090909 L16,0 L0,0 Z M1.33333333,1.36363636 L14.6666667,1.36363636 L14.6666667,2.72727273 L1.33333333,2.72727273 L1.33333333,1.36363636 Z M2,4.09090909 L14,4.09090909 L14,13.6363636 L2,13.6363636 L2,4.09090909 Z M5.875,5.45454545 C5.50781267,5.48916886 5.23697933,5.82475159 5.27083333,6.20028409 C5.30468733,6.57581659 5.63281267,6.85280523 6,6.81818182 L10,6.81818182 C10.2395833,6.820845 10.463542,6.69300409 10.5859373,6.47993591 C10.7057293,6.26686773 10.7057293,6.00585955 10.5859373,5.79279136 C10.463542,5.57972318 10.2395833,5.45188227 10,5.45454545 L6,5.45454545 C5.97916667,5.45454545 5.95833333,5.45454545 5.9375,5.45454545 C5.91666667,5.45454545 5.89583333,5.45454545 5.875,5.45454545 Z" id="Shape"></path>
        </g>
    </g>
</svg>
