<?xml version="1.0" encoding="UTF-8"?>
<svg width="32px" height="32px" viewBox="0 0 32 32" version="1.1" xmlns="http://www.w3.org/2000/svg" xmlns:xlink="http://www.w3.org/1999/xlink">
    <g id="Icon/Image-Gallery" stroke="none" stroke-width="1" fill="none" fill-rule="evenodd">
        <rect id="Background" fill="#FF4D94" fill-rule="nonzero" x="0" y="0" width="32" height="32" rx="5"></rect>
        <path d="M8,9 L8,18.3333333 L10.2857143,18.3333333 L10.2857143,20.6666667 L12.5714286,20.6666667 L12.5714286,23 L24,23 L24,13.6666667 L21.7142857,13.6666667 L21.7142857,11.3333333 L19.4285714,11.3333333 L19.4285714,9 L8,9 Z M9.14285714,10.1666667 L18.2857143,10.1666667 L18.2857143,17.1666667 L16.9330354,17.1666667 C16.6473211,16.3554693 16.0848217,15.6901042 15.3571429,15.2799485 C15.75,14.8606777 16,14.2910153 16,13.6666667 C16,12.386068 14.9687497,11.3333333 13.7142857,11.3333333 C12.4598217,11.3333333 11.4285714,12.386068 11.4285714,13.6666667 C11.4285714,14.2910153 11.6785714,14.8606777 12.0714286,15.2799485 C11.3437497,15.6901042 10.7812503,16.3554693 10.495536,17.1666667 L9.14285714,17.1666667 L9.14285714,10.1666667 Z M13.7142857,12.5 C14.3526789,12.5 14.8571429,13.0149737 14.8571429,13.6666667 C14.8571429,14.3183597 14.3526789,14.8333333 13.7142857,14.8333333 C13.0758926,14.8333333 12.5714286,14.3183597 12.5714286,13.6666667 C12.5714286,13.0149737 13.0758926,12.5 13.7142857,12.5 Z M19.4285714,12.5 L20.5714286,12.5 L20.5714286,19.5 L11.4285714,19.5 L11.4285714,18.3333333 L19.4285714,18.3333333 L19.4285714,12.5 Z M21.7142857,14.8333333 L22.8571429,14.8333333 L22.8571429,21.8333333 L13.7142857,21.8333333 L13.7142857,20.6666667 L21.7142857,20.6666667 L21.7142857,14.8333333 Z M13.7142857,16 C14.5625006,16 15.2901783,16.4694013 15.6875006,17.1666667 L11.741072,17.1666667 C12.1383931,16.4694013 12.866072,16 13.7142857,16 Z" id="Shape" fill="#FFFFFF" fill-rule="nonzero"></path>
    </g>
</svg>
