<?xml version="1.0" encoding="UTF-8"?>
<svg width="32px" height="32px" viewBox="0 0 32 32" version="1.1" xmlns="http://www.w3.org/2000/svg" xmlns:xlink="http://www.w3.org/1999/xlink">
    <g id="Icon/Paragraph-&amp;-Icon" stroke="none" stroke-width="1" fill="none" fill-rule="evenodd">
        <rect id="Background" fill="#226FFF" fill-rule="nonzero" x="0" y="0" width="32" height="32" rx="5"></rect>
        <path d="M9.07692308,7 C7.93803345,7 7,7.91942167 7,9.03571429 L7,21.25 C7,22.3662921 7.93803345,23.2857143 9.07692308,23.2857143 L15.3076923,23.2857143 L15.3076923,21.9285714 L9.07692308,21.9285714 C8.68719732,21.9285714 8.38461538,21.6319936 8.38461538,21.25 L8.38461538,9.03571429 C8.38461538,8.65372119 8.68719732,8.35714286 9.07692308,8.35714286 L15.3076923,8.35714286 L19.4615385,8.35714286 L19.4615385,13.7857143 L20.8461538,13.7857143 L20.8461538,7 L16.2866586,7 L9.07692308,7 Z M20.8461538,15.1985212 L20.353966,15.6835937 C20.353966,15.6835937 19.4571908,16.5689362 18.5582929,17.7617187 C17.6593951,18.9545014 16.6923077,20.4272878 16.6923077,21.9285714 C16.6923077,24.1685778 18.5608032,26 20.8461538,26 C23.1315045,26 25,24.1685778 25,21.9285714 C25,20.4272878 24.0329126,18.9545014 23.1340148,17.7617187 C22.2351169,16.5689362 21.3383417,15.6835937 21.3383417,15.6835937 L20.8461538,15.1985212 Z M20.8461538,17.2077288 C21.1417429,17.5173633 21.4336794,17.7897341 22.0198314,18.567523 C22.8517028,19.6713633 23.6153846,21.0806408 23.6153846,21.9285714 C23.6153846,23.4342794 22.3823417,24.6428571 20.8461538,24.6428571 C19.309966,24.6428571 18.0769231,23.4342794 18.0769231,21.9285714 C18.0769231,21.0806408 18.8406049,19.6713646 19.6724763,18.567523 C20.2586283,17.7897341 20.5505648,17.5173633 20.8461538,17.2077288 Z M20.8461538,23 C20.0818462,23 19.4615385,22.4026667 19.4615385,21.6666667 C19.4615385,20.704 20.8461538,19 20.8461538,19 C20.8461538,19 22.2307692,20.684 22.2307692,21.6666667 C22.2307692,22.4026667 21.6104615,23 20.8461538,23 Z M9.76923077,16.5 L15.3076923,16.5 L15.3076923,17.8571429 L9.76923077,17.8571429 L9.76923077,16.5 Z M9.76923077,13.7857143 L15.3076923,13.7857143 L15.3076923,15.1428571 L9.76923077,15.1428571 L9.76923077,13.7857143 Z M9.76923077,11.0714286 L15.3076923,11.0714286 L15.3076923,12.4285714 L9.76923077,12.4285714 L9.76923077,11.0714286 Z" id="Shape" fill="#FFFFFF" fill-rule="nonzero" transform="translate(16.000000, 16.500000) rotate(-180.000000) translate(-16.000000, -16.500000) "></path>
    </g>
</svg>
