<?xml version="1.0" encoding="UTF-8"?>
<svg width="32px" height="32px" viewBox="0 0 32 32" version="1.1" xmlns="http://www.w3.org/2000/svg" xmlns:xlink="http://www.w3.org/1999/xlink">
    <g id="Icon/Partner" stroke="none" stroke-width="1" fill="none" fill-rule="evenodd">
        <rect id="Background" fill="#FF551E" fill-rule="nonzero" x="0" y="0" width="32" height="32" rx="5"></rect>
        <g id="Partner-Icons---Free-Download,-PNG-and-SVG-14" transform="translate(6.000000, 9.000000)" fill="#FFFFFF" fill-rule="nonzero">
            <path d="M20,1.898438 L20,8.199219 C20,8.199219 18.699219,8.5 18.398438,8.5 C18.101563,8.5 17.300781,8.800781 16.699219,8.199219 C15.800781,7.300781 12.398438,3.800781 12.398438,3.800781 C12.398438,3.800781 11.898438,3.199219 11,3.699219 L9.5,4.601563 C9,4.898438 8.199219,4.699219 7.898438,4.199219 C7.5,3.601563 7.699219,2.800781 8.300781,2.5 C9.5,1.800781 11.398438,0.699219 12.101563,0.300781 C12.699219,-0.101562 13.199219,-0.101562 14.101563,0.699219 C15.199219,1.601563 16.101563,2.5 16.101563,2.5 C16.101563,2.5 16.5,2.699219 16.898438,2.699219 C17.601563,2.5 20,1.898438 20,1.898438 Z M7.898438,12.800781 C7.601563,12.5 4.199219,8.800781 3.898438,8.5 C3.5,8 2.800781,8.101563 2.199219,8.5 C1.601563,9 1.398438,9.898438 1.800781,10.398438 C2.199219,10.898438 5.300781,14.199219 5.800781,14.699219 C6.199219,15.199219 7.300781,15 7.800781,14.5 C8.300781,14 8.398438,13.199219 7.898438,12.800781 Z M15.601563,10.699219 C16.101563,10.199219 16,9.300781 15.5,8.800781 C12.800781,6 13.800781,7.101563 12,5.199219 C12,5.199219 11.398438,4.5 10.699219,4.898438 C10.5,5 10.199219,5.199219 9.800781,5.398438 C8.898438,6 7.898438,5.898438 7,4.5 C6,3.300781 6.5,2.300781 7.398438,1.699219 L9.101563,0.601563 C9.101563,0.601563 8.699219,0 7.5,0 C6.300781,0 3.800781,1.800781 3.800781,1.800781 C3.800781,1.800781 3,2.300781 2,1.898438 L0,1.199219 L0,8.398438 C0,8.398438 0.601563,8.601563 1.101563,8.800781 C1.199219,8.5 1.398438,8.101563 1.699219,7.898438 C2.5,7.101563 4,7 4.699219,7.898438 C5.199219,8.398438 8.398438,11.898438 8.699219,12.199219 C9.199219,12.699219 9.300781,13.398438 9.199219,14 C9.398438,14.199219 13.699219,12.800781 15.601563,10.699219 Z" id="Shape"></path>
        </g>
    </g>
</svg>
