<?xml version="1.0" encoding="UTF-8"?>
<svg width="32px" height="32px" viewBox="0 0 32 32" version="1.1" xmlns="http://www.w3.org/2000/svg" xmlns:xlink="http://www.w3.org/1999/xlink">
    <g id="Icon/portfolio" stroke="none" stroke-width="1" fill="none" fill-rule="evenodd">
        <g id="element-icon-row" fill="#FF551E" fill-rule="nonzero">
            <rect id="Rectangle" x="0" y="0" width="32" height="32" rx="5"></rect>
        </g>
        <path d="M22.4,11.2 L19.2,11.2 L19.2,9.6 C19.2,8.712 18.488,8 17.6,8 L14.4,8 C13.512,8 12.8,8.712 12.8,9.6 L12.8,11.2 L9.6,11.2 C8.712,11.2 8.008,11.912 8.008,12.8 L8,21.6 C8,22.488 8.712,23.2 9.6,23.2 L22.4,23.2 C23.288,23.2 24,22.488 24,21.6 L24,12.8 C24,11.912 23.288,11.2 22.4,11.2 Z M17.6,11.2 L14.4,11.2 L14.4,9.6 L17.6,9.6 L17.6,11.2 Z" id="Shape" fill="#FFFFFF" fill-rule="nonzero"></path>
    </g>
</svg>
