<?xml version="1.0" encoding="UTF-8"?>
<svg width="32px" height="32px" viewBox="0 0 32 32" version="1.1" xmlns="http://www.w3.org/2000/svg" xmlns:xlink="http://www.w3.org/1999/xlink">
    <g id="Icon/Pricing-Table" stroke="none" stroke-width="1" fill="none" fill-rule="evenodd">
        <rect id="Background" fill="#BCAF05" fill-rule="nonzero" x="0" y="0" width="32" height="32" rx="5"></rect>
        <path d="M8.8,8 C8.68311809,8.00038596 8.56655212,8.01201494 8.45195308,8.03472222 C8.4424201,8.03661378 8.43330922,8.03962391 8.42382808,8.04166667 C7.59432879,8.21674402 7.00115077,8.94002163 7,9.77777778 L7,16.8888889 C7.00039077,17.0043279 7.01216511,17.1194548 7.03515625,17.2326391 C7.03707145,17.2420542 7.04011921,17.2510524 7.0421875,17.2604169 C7.2194534,18.0796754 7.95177195,18.6655301 8.8,18.6666667 L23.2,18.6666667 C23.316882,18.6662809 23.433448,18.654652 23.5480471,18.6319449 C23.5575799,18.6300533 23.5666906,18.6270427 23.5761721,18.625 C24.4056713,18.4499226 24.9988493,17.726645 25,16.8888889 L25,9.77777778 C24.9996094,9.66233887 24.9878352,9.54721199 24.9648442,9.43402773 C24.962929,9.42461244 24.9598807,9.41561404 24.9578125,9.40624996 C24.7805467,8.5869914 24.0482281,8.00113656 23.2,8 L8.8,8 Z M10.6,9.77777778 L21.4,9.77777778 C21.4,10.7596173 22.2058875,11.5555556 23.2,11.5555556 L23.2,15.1111111 C22.2058875,15.1111111 21.4,15.9070493 21.4,16.8888889 L10.6,16.8888889 C10.6,15.9070493 9.79411255,15.1111111 8.8,15.1111111 L8.8,11.5555556 C9.79411255,11.5555556 10.6,10.7596173 10.6,9.77777778 Z M16,10.6666667 C14.5088312,10.6666667 13.3,11.860574 13.3,13.3333333 C13.3,14.8060927 14.5088312,16 16,16 C17.4911688,16 18.7,14.8060927 18.7,13.3333333 C18.7,11.860574 17.4911688,10.6666667 16,10.6666667 Z M11.5,12.4444444 C11.0032,12.4444444 10.6,12.8417778 10.6,13.3333333 C10.6,13.8248889 11.0032,14.2222222 11.5,14.2222222 C11.9968,14.2222222 12.4,13.8248889 12.4,13.3333333 C12.4,12.8417778 11.9968,12.4444444 11.5,12.4444444 Z M20.5,12.4444444 C20.0032,12.4444444 19.6,12.8417778 19.6,13.3333333 C19.6,13.8248889 20.0032,14.2222222 20.5,14.2222222 C20.9968,14.2222222 21.4,13.8248889 21.4,13.3333333 C21.4,12.8417778 20.9968,12.4444444 20.5,12.4444444 Z M7,19.5555556 L7,20.4444444 C7,20.567 7.0129006,20.6864498 7.03691404,20.8020836 C7.08474346,21.0330809 7.17870472,21.2486551 7.30761721,21.4375004 C7.30790323,21.4379191 7.30733083,21.4388178 7.30761721,21.4392364 C7.37218573,21.5334062 7.44618544,21.6212329 7.52734375,21.7013884 C7.60876558,21.7818053 7.69701661,21.8545227 7.79277346,21.9184027 C7.79314912,21.9186542 7.79415532,21.918152 7.79453125,21.9184027 C7.98573697,22.0457236 8.20400524,22.1385253 8.43789058,22.1857636 C8.55496969,22.2094809 8.6759125,22.2222222 8.8,22.2222222 C12.8644,22.2222222 16.7672779,22.9459164 19.6175779,23.4756942 C21.1302241,23.7562756 22.2380737,23.9573662 22.9996096,23.9878471 C23.0661255,23.995577 23.1330263,23.9996342 23.2,24 C23.3162945,23.9995018 23.4322663,23.9878735 23.5462894,23.9652782 C23.5582504,23.9629627 23.5695697,23.9591458 23.5814452,23.9565973 C23.6860162,23.9343847 23.7883744,23.9030105 23.8873048,23.8628471 C23.8968367,23.8589378 23.9059807,23.85476 23.9154298,23.8506942 C24.0166899,23.8080571 24.1137765,23.7563358 24.2054692,23.6961804 C24.208585,23.6940996 24.2111554,23.6913351 24.2142577,23.6892364 C24.306809,23.6272907 24.3933155,23.5569634 24.4726558,23.4791662 C24.4762099,23.4756569 24.4779217,23.470552 24.4814452,23.4670142 C24.5594332,23.3896758 24.6300439,23.3054079 24.6923827,23.2152782 C24.6935581,23.2135609 24.694729,23.2117911 24.6958981,23.2100693 C24.7592041,23.1163939 24.8133539,23.0169888 24.8576173,22.9131947 C24.9513149,22.6945704 24.9997279,22.4596255 25,22.2222222 L25,19.5555556 L23.2,19.5555556 L23.2,20.4444444 C22.2971468,20.4455991 21.5348425,21.1071647 21.4175779,21.9913191 C20.9575159,21.9119076 20.4897931,21.8294382 19.9498048,21.7291662 C17.4475375,21.2644507 14.1493187,20.6566782 10.5947265,20.4913191 C10.5951571,20.4753156 10.6,20.460552 10.6,20.4444444 C10.6,20.1191111 10.5042906,19.8177778 10.3503906,19.5555556 L8.8,19.5555556 L7.24960942,19.5555556 L7,19.5555556 Z" id="Shape" fill="#FFFFFF" fill-rule="nonzero"></path>
    </g>
</svg>
