<?xml version="1.0" encoding="UTF-8"?>
<svg width="32px" height="32px" viewBox="0 0 32 32" version="1.1" xmlns="http://www.w3.org/2000/svg" xmlns:xlink="http://www.w3.org/1999/xlink">
    <g id="Icon/Product" stroke="none" stroke-width="1" fill="none" fill-rule="evenodd">
        <rect id="Background" fill="#FF551E" fill-rule="nonzero" x="0" y="0" width="32" height="32" rx="5"></rect>
        <g id="Product-Icons---Free-Download,-PNG-and-SVG-14" transform="translate(7.000000, 7.000000)" fill="#FFFFFF" fill-rule="nonzero">
            <path d="M8.35714286,0 C8.19273214,0 8.0283015,0.0638588034 7.90262293,0.191945076 L3.59095982,4.5862069 L5.40903986,4.5862069 L8.35714286,1.58162716 L11.3052459,4.5862069 L13.1233256,4.5862069 L8.81166279,0.191945076 C8.68598421,0.0638588034 8.52155357,0 8.35714286,0 Z M0.642857143,5.89655172 C0.288,5.89655172 0,6.19006897 0,6.55172414 L0,7.86206897 C0,8.22372414 0.288,8.51724138 0.642857143,8.51724138 L0.749581457,8.51724138 L1.74902342,14.6287716 C1.85252342,15.2603578 2.38908819,15.7241379 3.01715961,15.7241379 L10.9285714,15.7241379 L10.9285714,11.137931 C10.9285714,10.0542759 11.7938571,9.17241379 12.8571429,9.17241379 C13.2801429,9.17241379 13.6898434,9.31655172 14.0273434,9.58189655 C14.0305577,9.58451724 14.0341744,9.58695383 14.0373887,9.58957452 L15.6030969,10.7258892 L15.964704,8.51724138 L16.0714286,8.51724138 C16.4262857,8.51724138 16.7142857,8.22372414 16.7142857,7.86206897 L16.7142857,6.55172414 C16.7142857,6.19006897 16.4262857,5.89655172 16.0714286,5.89655172 L0.642857143,5.89655172 Z M12.8671875,10.4750807 C12.682291,10.4710618 12.5046508,10.5483842 12.3796506,10.6872935 C12.2546505,10.8262029 12.1943977,11.0132446 12.2142857,11.200633 L12.2142857,17.0344828 C12.2142857,17.3961379 12.5022857,17.6896552 12.8571429,17.6896552 C13.0422857,17.6896552 13.2059629,17.6075542 13.3229629,17.4797956 L13.3267301,17.4810751 L14.5358537,16.0248516 L15.8178015,18.6378639 C15.9205022,18.8472888 16.1250385,18.9849555 16.3543485,18.9989963 C16.5836584,19.013037 16.8028961,18.9013181 16.9294605,18.7059312 C17.0560248,18.5105444 17.0706832,18.2611805 16.9679128,18.0517912 L15.6595982,15.3863147 L17.5341799,15.0433732 L17.5354354,15.0318559 C17.8015783,14.95258 18,14.7112414 18,14.4137931 C18,14.1851379 17.8772844,13.9936225 17.7024272,13.8763473 L17.7049389,13.8635505 L13.3078963,10.6670259 C13.1907578,10.5475465 13.0328737,10.4787821 12.8671875,10.4750807 Z" id="Shape"></path>
        </g>
    </g>
</svg>
