<?xml version="1.0" encoding="UTF-8"?>
<svg width="32px" height="32px" viewBox="0 0 32 32" version="1.1" xmlns="http://www.w3.org/2000/svg" xmlns:xlink="http://www.w3.org/1999/xlink">
    <g id="Icon/Progress-Bar" stroke="none" stroke-width="1" fill="none" fill-rule="evenodd">
        <rect id="Background" fill="#6BC158" fill-rule="nonzero" x="0" y="0" width="32" height="32" rx="5"></rect>
        <g id="Progress-Icons---Free-Download,-PNG-and-SVG-14" transform="translate(16.000000, 16.000000) rotate(-270.000000) translate(-16.000000, -16.000000) translate(6.000000, 8.000000)" fill="#FFFFFF" fill-rule="nonzero">
            <path d="M7.14285714,0 C6.74857143,0 6.42857143,0.325818182 6.42857143,0.727272727 L6.42857143,13.0909091 L9.28571429,13.0909091 L9.28571429,0.727272727 C9.28571429,0.325818182 8.96571429,0 8.57142857,0 L7.14285714,0 Z M2.85714286,1.45454545 C2.46285714,1.45454545 2.14285714,1.78036364 2.14285714,2.18181818 L2.14285714,13.0909091 L5,13.0909091 L5,2.18181818 C5,1.78036364 4.68,1.45454545 4.28571429,1.45454545 L2.85714286,1.45454545 Z M15.7142857,2.90909091 C15.32,2.90909091 15,3.23490909 15,3.63636364 L15,13.0909091 L17.8571429,13.0909091 L17.8571429,3.63636364 C17.8571429,3.23490909 17.5371429,2.90909091 17.1428571,2.90909091 L15.7142857,2.90909091 Z M11.4285714,4.36363636 C11.0342857,4.36363636 10.7142857,4.68945455 10.7142857,5.09090909 L10.7142857,13.0909091 L13.5714286,13.0909091 L13.5714286,5.09090909 C13.5714286,4.68945455 13.2514286,4.36363636 12.8571429,4.36363636 L11.4285714,4.36363636 Z M1.42857143,14.5454545 C1.17097435,14.5417452 0.931370454,14.6795457 0.80150877,14.9060893 C0.671647087,15.132633 0.671647087,15.4128215 0.80150877,15.6393652 C0.931370454,15.8659089 1.17097435,16.0037093 1.42857143,16 L18.5714286,16 C18.8290257,16.0037093 19.0686295,15.8659089 19.1984912,15.6393652 C19.3283529,15.4128215 19.3283529,15.132633 19.1984912,14.9060893 C19.0686295,14.6795457 18.8290257,14.5417452 18.5714286,14.5454545 L1.42857143,14.5454545 Z" id="Shape"></path>
        </g>
    </g>
</svg>
