<?xml version="1.0" encoding="UTF-8"?>
<svg width="32px" height="32px" viewBox="0 0 32 32" version="1.1" xmlns="http://www.w3.org/2000/svg" xmlns:xlink="http://www.w3.org/1999/xlink">
    <g id="Icon/Share" stroke="none" stroke-width="1" fill="none" fill-rule="evenodd">
        <rect id="Background" fill="#226FFF" fill-rule="nonzero" x="0" y="0" width="32" height="32" rx="5"></rect>
        <g id="16px-share-2" transform="translate(9.000000, 8.000000)" fill="#FFFFFF" fill-rule="nonzero">
            <path d="M11,6 C12.654,6 14,4.654 14,3 C14,1.346 12.654,0 11,0 C9.346,0 8,1.346 8,3 C8,3.223 8.029,3.439 8.075,3.649 L4.855,5.661 C4.343,5.254 3.704,5 3,5 C1.346,5 0,6.346 0,8 C0,9.654 1.346,11 3,11 C3.704,11 4.343,10.746 4.855,10.339 L8.075,12.351 C8.029,12.561 8,12.777 8,13 C8,14.654 9.346,16 11,16 C12.654,16 14,14.654 14,13 C14,11.346 12.654,10 11,10 C10.296,10 9.657,10.254 9.145,10.661 L5.925,8.649 C5.971,8.439 6,8.223 6,8 C6,7.777 5.971,7.561 5.925,7.351 L9.145,5.339 C9.657,5.746 10.296,6 11,6 Z" id="Shape"></path>
        </g>
    </g>
</svg>
