<?xml version="1.0" encoding="UTF-8"?>
<svg width="32px" height="32px" viewBox="0 0 32 32" version="1.1" xmlns="http://www.w3.org/2000/svg" xmlns:xlink="http://www.w3.org/1999/xlink">
    <g id="Icon/Single-Image" stroke="none" stroke-width="1" fill="none" fill-rule="evenodd">
        <rect id="Background" fill="#FF4D94" fill-rule="nonzero" x="0" y="0" width="32" height="32" rx="5"></rect>
        <g id="Group" transform="translate(8.000000, 8.000000)" fill="#FFFFFF" fill-rule="nonzero">
            <path d="M15,16 L1,16 C0.4,16 0,15.6 0,15 L0,1 C0,0.4 0.4,0 1,0 L15,0 C15.6,0 16,0.4 16,1 L16,15 C16,15.6 15.6,16 15,16 Z M2,14 L14,14 L14,2 L2,2 L2,14 Z" id="Shape"></path>
            <path d="M6,4 C6.6,4 7,4.4 7,5 C7,5.6 6.6,6 6,6 C5.4,6 5,5.6 5,5 C5,4.4 5.4,4 6,4 Z M3,12 L5,8 L7,10 L10,6 L13,12 L3,12 Z" id="Combined-Shape"></path>
        </g>
    </g>
</svg>
