<?xml version="1.0" encoding="UTF-8"?>
<svg width="32px" height="32px" viewBox="0 0 32 32" version="1.1" xmlns="http://www.w3.org/2000/svg" xmlns:xlink="http://www.w3.org/1999/xlink">
    <g id="Icon/Staff" stroke="none" stroke-width="1" fill="none" fill-rule="evenodd">
        <rect id="Background" fill="#FF551E" fill-rule="nonzero" x="0" y="0" width="32" height="32" rx="5"></rect>
        <g id="Staff-Icons---Free-Download,-PNG-and-SVG-14" transform="translate(5.000000, 9.000000)" fill="#FFFFFF" fill-rule="nonzero">
            <path d="M11,0 C8.97330775,0 7.33333333,1.66979213 7.33333333,3.73333333 C7.33333333,5.79687547 8.97330775,7.46666667 11,7.46666667 C13.0266932,7.46666667 14.6666667,5.79687547 14.6666667,3.73333333 C14.6666667,1.66979213 13.0266932,0 11,0 Z M4.125,0.933333333 C2.86100283,0.933333333 1.83333333,1.97968773 1.83333333,3.26666667 C1.83333333,4.5536456 2.86100283,5.6 4.125,5.6 C5.38899717,5.6 6.41666667,4.5536456 6.41666667,3.26666667 C6.41666667,1.97968773 5.38899717,0.933333333 4.125,0.933333333 Z M17.875,0.933333333 C16.6110028,0.933333333 15.5833333,1.97968773 15.5833333,3.26666667 C15.5833333,4.5536456 16.6110028,5.6 17.875,5.6 C19.1389972,5.6 20.1666667,4.5536456 20.1666667,3.26666667 C20.1666667,1.97968773 19.1389972,0.933333333 17.875,0.933333333 Z M11,1.86666667 C12.0133466,1.86666667 12.8333333,2.70156227 12.8333333,3.73333333 C12.8333333,4.7651044 12.0133466,5.6 11,5.6 C9.98665342,5.6 9.16666667,4.7651044 9.16666667,3.73333333 C9.16666667,2.70156227 9.98665342,1.86666667 11,1.86666667 Z M4.125,7.46666667 C0.99186175,7.46666667 0,9.94583333 0,9.94583333 L0,11.2 L3.72395833,11.2 L3.75260417,11.1416667 C3.79915342,11.0359377 4.59765625,9.2348956 6.73177083,8.19583333 C6.105143,7.7838544 5.24934942,7.46666667 4.125,7.46666667 Z M17.875,7.46666667 C16.7506515,7.46666667 15.894857,7.7838544 15.2682292,8.19583333 C17.4023438,9.2348956 18.2008466,11.0359377 18.2473958,11.1416667 L18.2760417,11.2 L22,11.2 L22,9.94583333 C22,9.94583333 21.0081383,7.46666667 17.875,7.46666667 Z M11,8.4 C6.12662783,8.4 4.58333333,12.1333333 4.58333333,12.1333333 L4.58333333,14 L17.4166667,14 L17.4166667,12.1333333 C17.4166667,12.1333333 15.8733722,8.4 11,8.4 Z M11,10.2666667 C14.1474612,10.2666667 15.1536458,12.1333333 15.1536458,12.1333333 L6.84635417,12.1333333 C6.84635417,12.1333333 7.89192708,10.2666667 11,10.2666667 Z" id="Shape"></path>
        </g>
    </g>
</svg>
