<?xml version="1.0" encoding="UTF-8"?>
<svg width="32px" height="32px" viewBox="0 0 32 32" version="1.1" xmlns="http://www.w3.org/2000/svg" xmlns:xlink="http://www.w3.org/1999/xlink">
    <g id="Icon/Time-Line" stroke="none" stroke-width="1" fill="none" fill-rule="evenodd">
        <g id="element-icon-row" fill="#1F3A66" fill-opacity="0.834550498" fill-rule="nonzero">
            <rect id="Rectangle" x="0" y="0" width="32" height="32" rx="5"></rect>
        </g>
        <g id="Time-line-Icons---Free-Download,-PNG-and-SVG-17" transform="translate(8.000000, 8.000000)" fill="#FFFFFF" fill-rule="nonzero">
            <path d="M15.5555556,10.7368421 L6.13368044,10.7368421 C5.91145822,10.7368421 5.689236,10.6477178 5.51041689,10.4677223 L3.86631956,8.8128085 C3.689236,8.63455992 3.689236,8.36544008 3.86631956,8.1871915 L5.51041689,6.53227818 C5.689236,6.35228218 5.91145822,6.26315789 6.13368044,6.26315789 L15.5555556,6.26315789 C15.8229169,6.26315789 16,6.44140647 16,6.71052632 L16,10.2894737 C16,10.558594 15.8229169,10.7368421 15.5555556,10.7368421 Z" id="Shape"></path>
            <polygon id="Shape" points="1 5 1.88888889 5 1.88888889 6 1 6"></polygon>
            <polygon id="Shape-Copy" points="1 11 1.88888889 11 1.88888889 12 1 12"></polygon>
            <path d="M2.66666667,2.23684211 C2.66666667,2.97779605 2.06944444,3.57894737 1.33333333,3.57894737 C0.597222222,3.57894737 0,2.97779605 0,2.23684211 C0,1.49588816 0.597222222,0.894736842 1.33333333,0.894736842 C2.06944444,0.894736842 2.66666667,1.49588816 2.66666667,2.23684211 Z" id="Shape"></path>
            <path d="M2.66666667,8.5 C2.66666667,9.24095395 2.06944444,9.84210526 1.33333333,9.84210526 C0.597222222,9.84210526 0,9.24095395 0,8.5 C0,7.75904605 0.597222222,7.15789474 1.33333333,7.15789474 C2.06944444,7.15789474 2.66666667,7.75904605 2.66666667,8.5 Z" id="Shape"></path>
            <path d="M2.66666667,14.7631579 C2.66666667,15.5041118 2.06944444,16.1052632 1.33333333,16.1052632 C0.597222222,16.1052632 0,15.5041118 0,14.7631579 C0,14.0222039 0.597222222,13.4210526 1.33333333,13.4210526 C2.06944444,13.4210526 2.66666667,14.0222039 2.66666667,14.7631579 Z" id="Shape"></path>
            <path d="M12,17 L6.13368044,17 C5.91145822,17 5.689236,16.9108757 5.51041689,16.7308802 L3.86631956,15.0759664 C3.689236,14.8977178 3.689236,14.628598 3.86631956,14.4503494 L5.51041689,12.7954361 C5.689236,12.6154401 5.91145822,12.5263158 6.13368044,12.5263158 L12,12.5263158 C12.2673613,12.5263158 12.4444444,12.7045644 12.4444444,12.9736842 L12.4444444,16.5526316 C12.4444444,16.8217519 12.2673613,17 12,17 Z" id="Shape"></path>
            <path d="M12.4444444,4.47368421 L6.13368044,4.47368421 C5.91145822,4.47368421 5.689236,4.38455992 5.51041689,4.20456437 L3.86631956,2.54965061 C3.689236,2.37140203 3.689236,2.10228218 3.86631956,1.92403361 L5.51041689,0.269120289 C5.689236,0.0891242895 5.91145822,0 6.13368044,0 L12.4444444,0 C12.7118058,0 12.8888889,0.178248579 12.8888889,0.447368421 L12.8888889,4.02631579 C12.8888889,4.29543608 12.7118058,4.47368421 12.4444444,4.47368421 Z" id="Shape"></path>
        </g>
    </g>
</svg>
